<svg width="243" height="242" viewBox="0 0 243 242" fill="none" xmlns="http://www.w3.org/2000/svg">
<g clip-path="url(#clip0_2_58)">
<path d="M129.4 241.52C191.687 241.52 242.18 229.499 242.18 214.67C242.18 199.841 191.687 187.82 129.4 187.82C67.1133 187.82 16.62 199.841 16.62 214.67C16.62 229.499 67.1133 241.52 129.4 241.52Z" fill="black"/>
<path d="M183.01 76.18H56.93V202.37H183.01V76.18Z" fill="url(#paint0_linear_2_58)"/>
<path d="M183.01 202.37L206.39 184.21V94.34L183.01 76.18V202.37Z" fill="url(#paint1_linear_2_58)"/>
<path d="M183.01 220.86L206.39 202.7V184.21L183.01 202.37V220.86Z" fill="white"/>
<path d="M181.11 224.73V201.44L208.29 180.34V203.63L181.11 224.73ZM184.9 203.29V216.98L204.5 201.77V188.08L184.9 203.29Z" fill="black"/>
<path d="M208.29 93.41L184.9 75.25L183.65 74.28H55.03V204.26H181.11V206.24L183.66 204.26H184.91V203.29L208.3 185.13V93.4L208.29 93.41ZM58.82 200.47V78.08H181.11V200.47H58.82ZM204.5 183.28L184.9 198.49V80.05L204.5 95.26V183.28Z" fill="black"/>
<path d="M183.01 202.37H148.1L165.55 221.19H183.01V202.37Z" fill="white"/>
<path d="M184.9 223.09H164.72L143.75 200.47H184.9V223.09ZM166.38 219.3H181.11V204.27H152.45L166.39 219.3H166.38Z" fill="black"/>
<path d="M100.88 161.73C111.42 184.56 128.52 184.56 139.06 161.73H100.88Z" fill="black"/>
<path d="M58.3 202.98H95.04L76.67 222.79H58.3V202.98Z" fill="white"/>
<path d="M77.5 224.69H56.41V201.09H99.39L77.5 224.69ZM60.2 220.9H75.84L90.69 204.88H60.2V220.9Z" fill="black"/>
<path d="M12.97 93.76C12.85 93.44 11.83 90.53 13.2 87.76C14.07 86.01 15.65 84.78 17.89 84.11C25.43 81.86 33.05 90.25 33.37 90.61L30.54 93.14C28.79 91.2 23.31 86.45 18.97 87.74C17.77 88.1 16.99 88.65 16.6 89.43C15.93 90.75 16.51 92.42 16.52 92.44L12.96 93.76H12.97Z" fill="black"/>
<path d="M5.8 102.67C5.59 102.21 3.78 98.05 5.34 94.62C6.11 92.93 7.58 91.72 9.59 91.13C15.63 89.35 23.26 95.32 24.11 96L21.73 98.95C19.85 97.43 14.18 93.72 10.66 94.76C9.4 95.13 8.99 95.75 8.79 96.18C8.06 97.76 8.88 100.26 9.25 101.09L5.8 102.66V102.67Z" fill="black"/>
<path d="M57.73 151.99C35.42 148.83 26.68 133.7 24.34 128.57C19.15 129.74 13.51 128.03 8.61 123.73C2.67 118.53 -0.93 110.65 0.21 105.4C0.8 102.7 2.59 100.77 5.25 99.98C13.92 97.39 22.61 104.61 25.02 110.93C26.59 115.04 25.48 118.56 22.14 120.12C20.43 120.92 18.59 120.99 16.82 120.32C11.88 118.45 8.72 111.4 8.38 110.6L11.86 109.1C12.62 110.86 15.25 115.67 18.17 116.78C18.99 117.09 19.75 117.06 20.54 116.69C22.02 116 22.34 114.52 21.49 112.28C19.65 107.45 12.84 101.68 6.36 103.61C5.01 104.01 4.24 104.84 3.94 106.21C3.09 110.08 6.32 116.67 11.13 120.89C13.71 123.15 18.92 126.63 24.82 124.51L26.63 123.86L27.26 125.67C27.53 126.45 34.27 144.85 58.29 148.25L57.76 152.01L57.73 151.99Z" fill="black"/>
<path d="M56.91 134.03C34.39 134.03 32.37 120.38 32.29 119.8L32.16 118.81L32.9 118.14C37.81 113.74 41.24 107.13 41.44 101.71C41.53 99.13 40.89 97.1 39.52 95.68C36.44 92.49 30.79 93.94 26.84 96.63C23.75 98.74 20.97 102.2 22.17 104.8C22.53 105.58 23.01 106.02 23.73 106.22C26.09 106.86 30.33 104.77 32.45 103.3L34.61 106.41C33.9 106.9 27.55 111.19 22.73 109.87C20.93 109.38 19.54 108.17 18.71 106.38C16.87 102.37 19.27 97.2 24.69 93.5C29.91 89.93 37.64 88.27 42.24 93.05C44.32 95.21 45.35 98.25 45.22 101.85C45 107.92 41.44 115.15 36.26 120.19C37.09 122.8 40.88 130.23 56.9 130.23H56.93V134.02H56.9L56.91 134.03Z" fill="black"/>
<path d="M6.2 145.43C4.25 144.67 3.29 142.46 4.05 140.51L13.97 115.17L21.03 117.94L11.11 143.27C10.35 145.22 8.14 146.18 6.19 145.42L6.2 145.43Z" fill="black"/>
<path d="M32.05 89.83L24.99 87.06L58.14 2.41C58.9 0.460001 61.11 -0.499999 63.06 0.260001C65.01 1.02 65.97 3.23 65.21 5.18L32.06 89.83H32.05Z" fill="black"/>
<path d="M58.67 151.83L49.12 147.9V132.7L56.58 133.74L58.67 151.83Z" fill="black"/>
<path d="M98.27 113.46C93.92 113.46 90.19 117.76 88.6 123.87H95.03V133.56H87.98C88.9 141.4 93.15 147.33 98.26 147.33C104.04 147.33 108.73 139.75 108.73 130.39C108.73 121.03 104.04 113.45 98.26 113.45L98.27 113.46Z" fill="white"/>
<path d="M139.06 118.23C136.06 118.23 133.42 120.44 131.88 123.77L137.7 129.59H130.5C130.48 129.9 130.47 130.21 130.47 130.52C130.47 137.31 134.32 142.81 139.06 142.81C143.8 142.81 147.65 137.31 147.65 130.52C147.65 123.73 143.8 118.23 139.06 118.23Z" fill="black"/>
<path d="M142.25 111.78C136.95 111.78 132.36 115.94 130.09 121.99L133.08 124.98C134.54 119.48 138.1 115.58 142.25 115.58C147.7 115.58 152.14 122.29 152.14 130.54C152.14 138.79 147.71 145.5 142.25 145.5C136.79 145.5 132.36 138.79 132.36 130.54C132.36 130.22 132.38 129.92 132.39 129.61H128.6C128.59 129.92 128.57 130.23 128.57 130.54C128.57 140.88 134.71 149.29 142.25 149.29C149.79 149.29 155.93 140.88 155.93 130.54C155.93 120.2 149.79 111.79 142.25 111.79V111.78Z" fill="black"/>
<path d="M94.5 118.23C91.5 118.23 88.86 120.44 87.32 123.77L93.14 129.59H85.94C85.92 129.9 85.91 130.21 85.91 130.52C85.91 137.31 89.76 142.81 94.5 142.81C99.24 142.81 103.09 137.31 103.09 130.52C103.09 123.73 99.24 118.23 94.5 118.23Z" fill="black"/>
<path d="M97.69 111.78C92.39 111.78 87.8 115.94 85.53 121.99L88.52 124.98C89.98 119.48 93.54 115.58 97.69 115.58C103.14 115.58 107.58 122.29 107.58 130.54C107.58 138.79 103.15 145.5 97.69 145.5C92.23 145.5 87.8 138.79 87.8 130.54C87.8 130.22 87.82 129.92 87.83 129.61H84.04C84.03 129.92 84.01 130.23 84.01 130.54C84.01 140.88 90.15 149.29 97.69 149.29C105.23 149.29 111.37 140.88 111.37 130.54C111.37 120.2 105.23 111.79 97.69 111.79V111.78Z" fill="black"/>
<path d="M199.59 105.71V111.99" stroke="black" stroke-width="4" stroke-miterlimit="10"/>
<path d="M199.59 115.84V122.12" stroke="black" stroke-width="4" stroke-miterlimit="10"/>
<path d="M158.8 108.48C155.52 102.94 150.81 99.92 146.22 100.39C144.17 100.6 142.25 101.47 140.53 102.97L138.04 100.11C140.34 98.11 143.03 96.9 145.84 96.62C151.96 96 158.02 99.71 162.08 106.55L158.82 108.48H158.8Z" fill="black"/>
<path d="M106.63 108.48C103.35 102.94 98.65 99.94 94.04 100.39C91.99 100.6 90.08 101.47 88.35 102.97L85.86 100.11C88.16 98.11 90.85 96.9 93.66 96.62C99.77 96 105.84 99.71 109.9 106.55L106.64 108.48H106.63Z" fill="black"/>
<path d="M134.54 26.66C133.7 26.93 132.96 27.4 132.33 28.05C131.7 28.7 131.21 29.46 130.88 30.33C133.24 29.58 134.39 29.18 136.67 28.37C136.8 27.6 136.68 27.05 136.3 26.74C135.92 26.43 135.33 26.4 134.53 26.66H134.54Z" fill="black"/>
<path d="M227.57 15.24C227.57 15.24 211.16 0.259998 186.25 0.259998C148.89 0.259998 135.27 15.24 100.64 15.24C71.38 15.24 61.85 5.88 61.85 5.88L45.41 49.45C45.41 49.45 67.41 58.25 93.45 58.25C133.27 58.25 155.76 33.92 181.73 33.92C200.96 33.92 217.52 43.18 217.52 43.18L211.16 23.17L227.57 15.25V15.24ZM81.72 24.38C81.96 23.65 82.36 23.1 82.92 22.71C83.48 22.33 84.06 22.18 84.67 22.26C85.3 22.34 85.75 22.63 86.03 23.13C86.31 23.63 86.34 24.24 86.11 24.97C85.88 25.7 85.49 26.27 84.92 26.67C84.36 27.07 83.75 27.22 83.11 27.14C82.49 27.06 82.04 26.75 81.76 26.25C81.48 25.74 81.47 25.12 81.71 24.39L81.72 24.38ZM68.01 42.24C71.24 33.81 72.86 29.59 76.09 21.16C77.32 21.45 77.95 21.58 79.23 21.83C76.23 30.3 74.73 34.54 71.74 43.01C70.25 42.73 69.51 42.57 68.01 42.24ZM75.87 43.73C77.85 37.7 78.84 34.68 80.82 28.65C82.2 28.86 82.89 28.96 84.3 29.13C82.41 35.18 81.47 38.21 79.58 44.26C78.1 44.07 77.36 43.96 75.87 43.73ZM83.69 44.72C86.27 36.15 87.56 31.86 90.14 23.29C91.57 23.41 92.29 23.45 93.76 23.53C91.2 32.12 89.92 36.42 87.37 45.01C85.9 44.92 85.17 44.86 83.69 44.72ZM105.24 49.46C99.14 50.28 95.41 50.37 89.79 50.18C90.21 48.78 90.42 48.08 90.84 46.67C96.49 46.85 100.23 46.75 106.29 45.96C105.87 47.36 105.66 48.06 105.24 49.45V49.46ZM113.89 43.29C113.8 37.67 113.77 34.8 113.72 28.99C115.29 28.78 116.06 28.65 117.57 28.39C117.44 33.06 117.38 35.38 117.29 39.94C117.49 39.89 117.6 39.87 117.8 39.82C120.48 34.66 121.79 32.09 124.34 27C125.76 26.66 126.46 26.49 127.84 26.12C124.63 32.37 122.98 35.54 119.57 41.93C117.35 42.53 116.21 42.8 113.89 43.29ZM139.47 28.66C139.36 29.13 139.3 29.36 139.18 29.83C135.64 31.17 133.85 31.84 130.15 33.06C129.93 34.03 130.05 34.71 130.5 35.11C130.96 35.51 131.63 35.54 132.52 35.22C133.42 34.89 134.13 34.43 134.66 33.84C135.19 33.26 135.62 32.66 135.97 32.06C136.85 32.28 137.29 32.38 138.16 32.57C137.81 33.13 137.35 33.78 136.77 34.51C136.19 35.24 135.48 35.96 134.64 36.65C133.8 37.34 132.8 37.91 131.63 38.35C130.36 38.83 129.3 38.94 128.48 38.68C127.65 38.42 127.11 37.82 126.85 36.88C126.6 35.94 126.67 34.71 127.08 33.19C127.12 33.05 127.14 32.98 127.17 32.84C127.58 31.32 128.2 29.93 129.03 28.66C129.86 27.39 130.82 26.32 131.91 25.44C133 24.56 134.15 23.94 135.35 23.56C136.54 23.19 137.48 23.16 138.2 23.48C138.92 23.79 139.39 24.39 139.62 25.27C139.85 26.15 139.79 27.27 139.46 28.66H139.47ZM144.59 28.9C144.74 29.36 145.03 29.63 145.47 29.71C145.9 29.8 146.52 29.68 147.2 29.4C148.22 28.99 149.05 28.43 149.69 27.73C150.33 27.03 150.8 26.26 151.11 25.42C152.34 25.23 152.95 25.13 154.19 24.94C153.78 25.87 153.23 26.8 152.51 27.72C151.8 28.64 150.93 29.5 149.92 30.29C148.91 31.08 147.75 31.76 146.45 32.3C145.13 32.85 144.09 33.07 143.24 32.94C142.4 32.82 141.82 32.36 141.5 31.57C141.18 30.78 141.2 29.65 141.55 28.2C141.59 28.05 141.6 27.97 141.64 27.82C141.99 26.37 142.57 25.03 143.36 23.82C144.16 22.61 145.1 21.58 146.17 20.73C147.24 19.88 148.37 19.27 149.57 18.88C150.76 18.49 151.73 18.37 152.5 18.51C153.27 18.65 153.85 18.99 154.24 19.52C154.63 20.05 154.83 20.73 154.82 21.55C153.49 22.23 152.83 22.57 151.51 23.29C151.55 22.82 151.49 22.43 151.34 22.11C151.19 21.79 150.92 21.59 150.54 21.51C150.16 21.43 149.64 21.49 149 21.72C148.35 21.95 147.72 22.3 147.15 22.76C146.58 23.22 146.09 23.79 145.67 24.46C145.25 25.13 144.94 25.88 144.74 26.71C144.71 26.82 144.7 26.87 144.68 26.97C144.48 27.79 144.46 28.44 144.61 28.89L144.59 28.9ZM166.7 16.67C165.2 16.99 164.46 17.16 162.99 17.53C162.55 19.84 162.34 20.99 161.9 23.3C161.82 23.75 162.03 23.89 162.54 23.74C163.59 23.43 164.12 23.28 165.19 23C165.02 23.9 164.93 24.36 164.76 25.26C163.2 25.7 162.43 25.93 160.89 26.43C159.99 26.72 159.31 26.74 158.85 26.47C158.39 26.19 158.23 25.66 158.38 24.88C158.88 22.3 159.13 21.01 159.63 18.42C158.32 18.79 157.67 18.99 156.39 19.39C156.59 18.4 156.69 17.9 156.89 16.92C158.16 16.55 158.8 16.37 160.1 16.03C160.38 14.61 160.51 13.9 160.79 12.48C162.09 12.18 162.74 12.03 164.08 11.76C163.82 13.14 163.69 13.83 163.43 15.2C164.88 14.86 165.62 14.7 167.12 14.41C166.95 15.31 166.86 15.76 166.69 16.67H166.7ZM183.66 17.51C183.63 17.64 183.61 17.7 183.57 17.83C183.28 18.9 182.67 19.82 181.77 20.6C180.87 21.38 179.78 21.99 178.51 22.48C177.24 22.97 175.89 23.3 174.46 23.49C173.03 23.69 171.8 23.7 170.76 23.5C169.72 23.3 168.96 22.88 168.48 22.21C168 21.54 167.86 20.64 168.08 19.5C168.11 19.36 168.12 19.29 168.15 19.16C168.37 18.02 168.87 16.98 169.67 16.06C170.47 15.14 171.47 14.39 172.69 13.81C173.92 13.24 175.27 12.88 176.77 12.75C178.27 12.62 179.61 12.74 180.76 13.09C181.91 13.44 182.77 14 183.3 14.75C183.83 15.5 183.95 16.42 183.66 17.49V17.51ZM196.14 16.03C195.43 15.89 195.07 15.83 194.36 15.71C193.44 15.56 192.65 15.62 191.97 15.89C191.29 16.16 190.87 16.65 190.69 17.36C190.13 19.62 189.85 20.75 189.29 23.01C187.8 22.86 187.06 22.81 185.6 22.74C186.64 18.76 187.16 16.76 188.2 12.78C189.59 12.86 190.29 12.92 191.69 13.08C191.58 13.53 191.52 13.75 191.41 14.2C191.61 14.22 191.72 14.24 191.92 14.26C192.23 13.89 192.64 13.64 193.17 13.52C193.7 13.4 194.28 13.39 194.92 13.5C195.6 13.62 195.94 13.68 196.62 13.82C196.42 14.71 196.32 15.16 196.12 16.05L196.14 16.03Z" fill="black"/>
<path d="M179.04 15.56C178.39 15.1 177.45 14.92 176.27 15.04C175.11 15.15 174.11 15.53 173.26 16.15C172.41 16.77 171.9 17.58 171.71 18.55C171.69 18.63 171.68 18.68 171.67 18.76C171.48 19.73 171.69 20.42 172.32 20.82C172.95 21.22 173.82 21.33 174.95 21.19C176.08 21.05 177.09 20.7 177.97 20.13C178.85 19.56 179.41 18.82 179.64 17.87C179.66 17.79 179.67 17.75 179.69 17.67C179.92 16.73 179.69 16.02 179.05 15.56H179.04Z" fill="black"/>
<path d="M225.12 179.25L223.84 178.18L224.67 176.73C230.17 167.09 231.24 158.81 227.86 152.15C221.87 140.33 203.54 136.16 197.15 135.04V147.76C210.95 148.25 219.31 151.48 222.01 157.37C225.29 164.54 218.84 172.4 218.57 172.73L217.56 173.94L216.15 173.24C210.26 170.32 204.94 170.79 201.94 174.51C199.76 177.2 199.35 180.92 200.66 184.13C201.55 182.91 202.37 181.47 202.96 179.8L206.73 181.13C204.07 188.64 197.81 192.31 197.54 192.46L195.54 188.99C195.54 188.99 196.51 188.41 197.76 187.3C197.26 186.43 196.87 185.53 196.57 184.6C193.77 187.18 192.74 191.33 193.47 194.35C193.93 196.26 195.27 198.53 199.01 198.53C205.54 198.53 211.27 189.52 211.33 189.43L214.72 191.55C214.47 191.95 209.11 200.39 201.73 202.19C202.58 203.59 204.39 205.22 208.21 205.22C213.98 205.22 219.15 196.42 220.65 193.03L224.31 194.65C224.14 195.03 221.49 200.92 217.09 205.1C217.63 205.18 218.22 205.23 218.87 205.23C223.72 205.23 227.54 202.36 229.37 197.35C231.38 191.82 230.57 183.83 225.11 179.25H225.12Z" fill="white"/>
<path d="M231.43 150.32C223.18 134.06 196.51 130.84 195.38 130.71L193.15 130.46V151.67L195.12 151.7C211.67 151.97 216.9 155.83 218.37 159.02C220.02 162.59 217.72 166.89 216.37 168.95C210.63 166.6 203.43 166.3 198.82 171.98C196.93 174.32 195.97 177.19 195.92 180.11C190.45 183.43 188.38 190.28 189.59 195.28C190.56 199.3 193.45 201.88 197.44 202.42C198.49 205.39 201.54 209.22 208.22 209.22C209.88 209.22 211.44 208.79 212.88 208.09C213.97 208.54 216.07 209.22 218.88 209.22C225.41 209.22 230.74 205.29 233.13 198.71C235.88 191.17 234.13 182.62 228.91 177.3C234.43 166.99 235.28 157.91 231.42 150.31L231.43 150.32ZM229.38 197.35C227.56 202.36 223.73 205.23 218.88 205.23C218.23 205.23 217.64 205.18 217.1 205.1C221.5 200.93 224.15 195.03 224.32 194.65L220.66 193.03C219.16 196.42 213.99 205.22 208.22 205.22C204.39 205.22 202.59 203.59 201.74 202.19C209.12 200.39 214.48 191.95 214.73 191.55L211.34 189.43C211.28 189.52 205.55 198.53 199.02 198.53C195.28 198.53 193.94 196.25 193.48 194.35C192.75 191.32 193.78 187.17 196.58 184.6C196.88 185.53 197.27 186.44 197.77 187.3C196.52 188.41 195.57 188.97 195.55 188.99L197.55 192.46C197.82 192.31 204.08 188.65 206.74 181.13L202.97 179.8C202.38 181.47 201.55 182.91 200.67 184.13C199.35 180.92 199.77 177.2 201.95 174.51C204.96 170.8 210.28 170.32 216.16 173.24L217.57 173.94L218.58 172.73C218.86 172.4 225.31 164.53 222.02 157.37C219.32 151.48 210.96 148.25 197.16 147.76V135.04C203.56 136.16 221.88 140.33 227.87 152.15C231.25 158.82 230.17 167.09 224.68 176.73L223.85 178.18L225.13 179.25C230.58 183.83 231.4 191.83 229.39 197.35H229.38Z" fill="black"/>
<path d="M204.28 151.3H194.89V132.7L204.28 134.28V151.3Z" fill="black"/>
</g>
<defs>
<linearGradient id="paint0_linear_2_58" x1="50.45" y1="139.27" x2="176.53" y2="139.27" gradientUnits="userSpaceOnUse">
<stop stop-color="#FF09FF"/>
<stop offset="0.05" stop-color="#FF37FF"/>
<stop offset="0.09" stop-color="#FF62FF"/>
<stop offset="0.14" stop-color="#FF87FF"/>
<stop offset="0.2" stop-color="#FFA8FF"/>
<stop offset="0.25" stop-color="#FFC3FF"/>
<stop offset="0.32" stop-color="#FFD9FF"/>
<stop offset="0.4" stop-color="#FFEAFF"/>
<stop offset="0.49" stop-color="#FFF6FF"/>
<stop offset="0.63" stop-color="#FFFDFF"/>
<stop offset="1" stop-color="white"/>
</linearGradient>
<linearGradient id="paint1_linear_2_58" x1="205.702" y1="1.01909e-05" x2="166.421" y2="1.01909e-05" gradientUnits="userSpaceOnUse">
<stop stop-color="#FF09FF"/>
<stop offset="0.05" stop-color="#FF37FF"/>
<stop offset="0.09" stop-color="#FF62FF"/>
<stop offset="0.14" stop-color="#FF87FF"/>
<stop offset="0.2" stop-color="#FFA8FF"/>
<stop offset="0.25" stop-color="#FFC3FF"/>
<stop offset="0.32" stop-color="#FFD9FF"/>
<stop offset="0.4" stop-color="#FFEAFF"/>
<stop offset="0.49" stop-color="#FFF6FF"/>
<stop offset="0.63" stop-color="#FFFDFF"/>
<stop offset="1" stop-color="white"/>
</linearGradient>
<clipPath id="clip0_2_58">
<rect width="242.18" height="241.52" fill="white"/>
</clipPath>
</defs>
</svg>
